<?xml version="1.0" encoding="UTF-8" standalone="no"?>
<svg xmlns="http://www.w3.org/2000/svg" viewBox="0 0 14 14" height="14px" width="14px">
<g>
  <path
    d="M 5.628906 1.726562 L 6.285156 1.15625 C 6.5625 0.910156 7.007812 0.910156 7.285156 1.15625 L 13.027344 6.179688 C 13.304688 6.421875 13.304688 6.8125 13.027344 7.050781 L 7.285156 12.078125 C 7.007812 12.320312 6.558594 12.320312 6.285156 12.078125 L 5.628906 11.503906 C 5.347656 11.257812 5.355469 10.859375 5.640625 10.617188 L 9.199219 7.648438 L 0.710938 7.648438 C 0.320312 7.648438 0 7.375 0 7.03125 L 0 6.203125 C 0 5.859375 0.320312 5.582031 0.710938 5.582031 L 9.199219 5.582031 L 5.640625 2.613281 C 5.351562 2.375 5.34375 1.976562 5.628906 1.726562 Z M 5.628906 1.726562 "
    style=" stroke:none;fill-rule:nonzero;fill:#526278;fill-opacity:1;" />
  </g>
</svg>
