<?xml version="1.0" encoding="UTF-8"?>
<svg xmlns="http://www.w3.org/2000/svg" xmlns:xlink="http://www.w3.org/1999/xlink" width="13pt" height="13pt" viewBox="0 0 13 13" version="1.1">
<g id="surface1">
<path style=" stroke:none;fill-rule:nonzero;fill:#fff;fill-opacity:1;" d="M 9.101562 7.71875 C 8.265625 7.71875 7.867188 8.125 6.5 8.125 C 5.132812 8.125 4.734375 7.71875 3.898438 7.71875 C 1.746094 7.71875 0 9.246094 0 11.132812 L 0 11.78125 C 0 12.453125 0.625 13 1.394531 13 L 11.605469 13 C 12.375 13 13 12.453125 13 11.78125 L 13 11.132812 C 13 9.246094 11.253906 7.71875 9.101562 7.71875 Z M 11.605469 11.78125 L 1.394531 11.78125 L 1.394531 11.132812 C 1.394531 9.921875 2.519531 8.9375 3.898438 8.9375 C 4.324219 8.9375 5.011719 9.34375 6.5 9.34375 C 8 9.34375 8.671875 8.9375 9.101562 8.9375 C 10.480469 8.9375 11.605469 9.921875 11.605469 11.132812 Z M 6.5 7.3125 C 8.808594 7.3125 10.679688 5.675781 10.679688 3.65625 C 10.679688 1.636719 8.808594 0 6.5 0 C 4.191406 0 2.320312 1.636719 2.320312 3.65625 C 2.320312 5.675781 4.191406 7.3125 6.5 7.3125 Z M 6.5 1.21875 C 8.035156 1.21875 9.285156 2.3125 9.285156 3.65625 C 9.285156 5 8.035156 6.09375 6.5 6.09375 C 4.964844 6.09375 3.714844 5 3.714844 3.65625 C 3.714844 2.3125 4.964844 1.21875 6.5 1.21875 Z M 6.5 1.21875 "/>
</g>
</svg>
